<svg width="495" height="195" viewBox="0 0 495 195" fill="none" xmlns="http://www.w3.org/2000/svg" role="img" aria-label="Anexus5919's GitHub Stats">
  <title>Anexus5919's GitHub Stats</title>
  <style>
    .header { font: 600 18px 'Segoe UI', Ubuntu, Sans-Serif; fill: #70a5fd; }
    text { font-family: 'Segoe UI', Ubuntu, Sans-Serif; }
    .rank-text { font: 800 24px 'Segoe UI', Ubuntu, Sans-Serif; fill: #70a5fd; }
  </style>
  <rect x="0.5" y="0.5" rx="4.5" width="494" height="194" fill="#1a1b27" stroke="none"/>
  <g transform="translate(25, 35)">
    <text class="header">Anexus5919's GitHub Stats</text>
  </g>
  <g transform="translate(0, 55)">
    <g transform="translate(400, 60)">
      <circle cx="0" cy="0" r="40" stroke="#70a5fd" stroke-width="6" fill="none" opacity="0.2"/>
      <circle cx="0" cy="0" r="40" stroke="#70a5fd" stroke-width="6" fill="none"
        stroke-dasharray="251.32741228718345" stroke-dashoffset="146.12345151707848"
        stroke-linecap="round" transform="rotate(-90)"/>
      <text class="rank-text" text-anchor="middle" dominant-baseline="central">B+</text>
    </g>
    <g transform="translate(25, 0)">
    <g transform="translate(0, 0)">
      <svg x="0" y="0" viewBox="0 0 16 16" width="16" height="16" fill="#bf91f3">
        <path d="M11.93 8.5a4.002 4.002 0 0 1-7.86 0H.75a.75.75 0 0 1 0-1.5h3.32a4.002 4.002 0 0 1 7.86 0h3.32a.75.75 0 0 1 0 1.5Zm-1.43-.75a2.5 2.5 0 1 0-5 0 2.5 2.5 0 0 0 5 0Z"/>
      </svg>
      <text x="25" y="12.5" fill="#38bdae" font-size="14">Total Commits:</text>
      <text x="219" y="12.5" fill="#38bdae" font-size="14" font-weight="600" text-anchor="end">1,372</text>
    </g>
    <g transform="translate(0, 25)">
      <svg x="0" y="0" viewBox="0 0 16 16" width="16" height="16" fill="#bf91f3">
        <path d="M1.5 3.25a2.25 2.25 0 1 1 3 2.122v5.256a2.251 2.251 0 1 1-1.5 0V5.372A2.25 2.25 0 0 1 1.5 3.25Zm5.677-.177L9.573.677A.25.25 0 0 1 10 .854V2.5h1A2.5 2.5 0 0 1 13.5 5v5.628a2.251 2.251 0 1 1-1.5 0V5a1 1 0 0 0-1-1h-1v1.646a.25.25 0 0 1-.427.177L7.177 3.427a.25.25 0 0 1 0-.354ZM3.75 2.5a.75.75 0 1 0 0 1.5.75.75 0 0 0 0-1.5Zm0 9.5a.75.75 0 1 0 0 1.5.75.75 0 0 0 0-1.5Zm8.25.75a.75.75 0 1 0 1.5 0 .75.75 0 0 0-1.5 0Z"/>
      </svg>
      <text x="25" y="12.5" fill="#38bdae" font-size="14">Total PRs:</text>
      <text x="219" y="12.5" fill="#38bdae" font-size="14" font-weight="600" text-anchor="end">1,012</text>
    </g>
    <g transform="translate(0, 50)">
      <svg x="0" y="0" viewBox="0 0 16 16" width="16" height="16" fill="#bf91f3">
        <path d="M8 9.5a1.5 1.5 0 1 0 0-3 1.5 1.5 0 0 0 0 3Z M8 0a8 8 0 1 1 0 16A8 8 0 0 1 8 0ZM1.5 8a6.5 6.5 0 1 0 13 0 6.5 6.5 0 0 0-13 0Z"/>
      </svg>
      <text x="25" y="12.5" fill="#38bdae" font-size="14">Total Issues:</text>
      <text x="219" y="12.5" fill="#38bdae" font-size="14" font-weight="600" text-anchor="end">949</text>
    </g>
    <g transform="translate(0, 75)">
      <svg x="0" y="0" viewBox="0 0 16 16" width="16" height="16" fill="#bf91f3">
        <path d="M8 0c4.42 0 8 3.58 8 8a8.013 8.013 0 0 1-5.45 7.59c-.4.08-.55-.17-.55-.38 0-.27.01-1.13.01-2.2 0-.75-.25-1.23-.54-1.48 1.78-.2 3.65-.88 3.65-3.95 0-.88-.31-1.59-.82-2.15.08-.2.36-1.02-.08-2.12 0 0-.67-.22-2.2.82-.64-.18-1.32-.27-2-.27-.68 0-1.36.09-2 .27-1.53-1.03-2.2-.82-2.2-.82-.44 1.1-.16 1.92-.08 2.12-.51.56-.82 1.28-.82 2.15 0 3.06 1.86 3.75 3.64 3.95-.23.2-.44.55-.51 1.07-.46.21-1.61.55-2.33-.66-.15-.24-.6-.83-1.23-.82-.67.01-.27.38.01.53.34.19.73.9.82 1.13.16.45.68 1.31 2.69.94 0 .67.01 1.3.01 1.49 0 .21-.15.45-.55.38A7.995 7.995 0 0 1 0 8c0-4.42 3.58-8 8-8Z"/>
      </svg>
      <text x="25" y="12.5" fill="#38bdae" font-size="14">Contributed to (last year):</text>
      <text x="219" y="12.5" fill="#38bdae" font-size="14" font-weight="600" text-anchor="end">28</text>
    </g>
    </g>
  </g>
</svg>
